# xmcd
# 
# Track frame offsets:
#     150
#     18863
#     38496
#     50794
#     79147
#     88465
#     124947
#     141834
#     159931
#     184207
#     206641
#     219497
#     243126
#     267887
# 
# Disc length: 4037
# 
# Revision: 0
# Processed by: cddbd v1.5.2PL0 Copyright (c) Steve Scherf et al.
# Submitted via: fre:ac v1.0.31
# 
DISCID=c20fc30e
DTITLE=Various Artist - Glastonbury 1986 and 1987
DYEAR=0
DGENRE=Blues
TTITLE0=Robert Cray - Don't touch me baby
TTITLE1=where do i go from here - where do i go from here
TTITLE2=thats what i - ll do
TTITLE3=porchlight - porchlight
TTITLE4=right next door - right next door
TTITLE5=phone - booth
TTITLE6=bad - influence
TTITLE7=i - guess
TTITLE8=right next 87 - right next 87
TTITLE9=lets - go
TTITLE10=new - blood
TTITLE11=playing - in
TTITLE12=playin in 88 - playin in 88
TTITLE13=smokin - gun
EXTD=
EXTT0=
EXTT1=
EXTT2=
EXTT3=
EXTT4=
EXTT5=
EXTT6=
EXTT7=
EXTT8=
EXTT9=
EXTT10=
EXTT11=
EXTT12=
EXTT13=
PLAYORDER=
